M48
; DRILL file {KiCad 5.1.12-84ad8e8a86~92~ubuntu18.04.1} date lun 24 abr 2023 19:04:29 CEST
; FORMAT={-:-/ absolute / inch / decimal}
; #@! TF.CreationDate,2023-04-24T19:04:29+02:00
; #@! TF.GenerationSoftware,Kicad,Pcbnew,5.1.12-84ad8e8a86~92~ubuntu18.04.1
FMAT,2
INCH
T1C0.0120
T2C0.0180
T3C0.0197
T4C0.0217
T5C0.0394
T6C0.1260
%
G90
G05
T1
X0.445Y-0.14
X0.445Y-0.18
X0.4864Y-0.7015
X0.51Y-0.49
X0.52Y-0.28
X0.5336Y-0.6385
X0.58Y-0.38
X0.62Y-0.33
X0.642Y-0.125
X0.68Y-0.125
T2
X0.12Y-0.05
X0.245Y-0.42
X0.245Y-0.46
X0.275Y-0.3
X0.49Y-0.06
X0.565Y-0.545
X0.635Y-0.17
X0.9Y-0.7
X0.92Y-0.1
X1.1Y-0.28
T5
X1.62Y-0.29
X1.62Y-0.39
X1.62Y-0.49
X1.72Y-0.29
X1.72Y-0.39
X1.72Y-0.49
T6
X2.0079Y-0.3937
T3
G00X0.0716Y-0.2522
M15
G01X0.046Y-0.2522
M16
G05
G00X0.0716Y-0.5278
M15
G01X0.046Y-0.5278
M16
G05
T4
G00X0.1651Y-0.2857
M15
G01X0.1651Y-0.2975
M16
G05
G00X0.1651Y-0.4825
M15
G01X0.1651Y-0.4943
M16
G05
T0
M30
