%TF.GenerationSoftware,KiCad,Pcbnew,5.1.12-84ad8e8a86~92~ubuntu18.04.1*%
%TF.CreationDate,2023-04-24T19:04:36+02:00*%
%TF.ProjectId,digital-protection-amulet,64696769-7461-46c2-9d70-726f74656374,rev?*%
%TF.SameCoordinates,Original*%
%TF.FileFunction,Soldermask,Top*%
%TF.FilePolarity,Negative*%
%FSLAX46Y46*%
G04 Gerber Fmt 4.6, Leading zero omitted, Abs format (unit mm)*
G04 Created by KiCad (PCBNEW 5.1.12-84ad8e8a86~92~ubuntu18.04.1) date 2023-04-24 19:04:36*
%MOMM*%
%LPD*%
G01*
G04 APERTURE LIST*
%ADD10C,0.010000*%
%ADD11C,1.700000*%
%ADD12R,1.950000X0.400000*%
%ADD13O,0.950000X1.250000*%
%ADD14R,1.550000X1.500000*%
%ADD15R,1.550000X1.200000*%
%ADD16O,1.550000X0.890000*%
%ADD17R,1.000000X1.200000*%
%ADD18C,0.609600*%
%ADD19C,3.200000*%
%ADD20R,0.800000X1.000000*%
%ADD21R,0.700000X0.510000*%
%ADD22C,0.100000*%
G04 APERTURE END LIST*
D10*
%TO.C,G\u002A\u002A\u002A*%
G36*
X49889488Y-13833953D02*
G01*
X49977599Y-13842878D01*
X50065553Y-13858399D01*
X50155328Y-13880892D01*
X50248904Y-13910731D01*
X50281840Y-13922580D01*
X50310784Y-13934105D01*
X50346103Y-13949468D01*
X50385338Y-13967484D01*
X50426031Y-13986969D01*
X50465725Y-14006741D01*
X50501961Y-14025614D01*
X50532282Y-14042405D01*
X50539866Y-14046864D01*
X50615750Y-14094707D01*
X50687739Y-14144861D01*
X50755160Y-14196674D01*
X50817346Y-14249491D01*
X50873625Y-14302661D01*
X50923327Y-14355532D01*
X50965783Y-14407449D01*
X51000323Y-14457761D01*
X51026276Y-14505814D01*
X51036547Y-14530766D01*
X51047376Y-14560673D01*
X51063973Y-14531666D01*
X51093094Y-14484986D01*
X51129064Y-14434283D01*
X51170421Y-14381378D01*
X51215704Y-14328092D01*
X51263449Y-14276246D01*
X51293461Y-14245807D01*
X51383996Y-14163046D01*
X51478198Y-14089729D01*
X51576003Y-14025880D01*
X51677347Y-13971528D01*
X51782167Y-13926699D01*
X51890399Y-13891419D01*
X52001980Y-13865715D01*
X52116846Y-13849613D01*
X52234934Y-13843140D01*
X52255419Y-13843000D01*
X52370890Y-13847655D01*
X52483653Y-13861417D01*
X52593242Y-13883982D01*
X52699195Y-13915045D01*
X52801048Y-13954303D01*
X52898337Y-14001450D01*
X52990598Y-14056182D01*
X53077367Y-14118196D01*
X53158181Y-14187187D01*
X53232574Y-14262849D01*
X53300085Y-14344880D01*
X53360248Y-14432975D01*
X53412601Y-14526828D01*
X53456678Y-14626137D01*
X53459296Y-14632905D01*
X53479844Y-14690323D01*
X53496926Y-14747000D01*
X53511291Y-14805896D01*
X53523690Y-14869974D01*
X53531291Y-14917420D01*
X53535025Y-14950344D01*
X53537800Y-14991222D01*
X53539616Y-15037892D01*
X53540473Y-15088192D01*
X53540370Y-15139962D01*
X53539307Y-15191039D01*
X53537284Y-15239262D01*
X53534301Y-15282470D01*
X53531330Y-15311120D01*
X53509367Y-15450071D01*
X53478544Y-15586483D01*
X53440935Y-15713532D01*
X53389648Y-15852618D01*
X53328299Y-15991689D01*
X53256879Y-16130751D01*
X53175383Y-16269814D01*
X53083804Y-16408884D01*
X52982134Y-16547971D01*
X52870366Y-16687080D01*
X52748494Y-16826222D01*
X52616511Y-16965402D01*
X52474410Y-17104631D01*
X52322184Y-17243914D01*
X52159825Y-17383261D01*
X51987328Y-17522679D01*
X51804684Y-17662176D01*
X51617880Y-17797529D01*
X51581389Y-17823124D01*
X51541336Y-17850870D01*
X51498519Y-17880241D01*
X51453732Y-17910713D01*
X51407773Y-17941758D01*
X51361438Y-17972852D01*
X51315523Y-18003469D01*
X51270825Y-18033083D01*
X51228139Y-18061167D01*
X51188262Y-18087197D01*
X51151991Y-18110646D01*
X51120122Y-18130989D01*
X51093450Y-18147699D01*
X51072773Y-18160252D01*
X51058887Y-18168121D01*
X51052588Y-18170780D01*
X51052582Y-18170780D01*
X51045673Y-18168090D01*
X51032549Y-18161236D01*
X51015582Y-18151484D01*
X51008280Y-18147075D01*
X50852275Y-18048919D01*
X50695929Y-17945378D01*
X50540274Y-17837269D01*
X50386340Y-17725405D01*
X50235159Y-17610602D01*
X50087762Y-17493676D01*
X49945180Y-17375442D01*
X49808445Y-17256716D01*
X49678588Y-17138311D01*
X49556640Y-17021045D01*
X49460645Y-16923574D01*
X49334392Y-16787646D01*
X49218014Y-16653569D01*
X49111426Y-16521202D01*
X49014541Y-16390401D01*
X48927273Y-16261026D01*
X48849534Y-16132934D01*
X48781239Y-16005984D01*
X48722302Y-15880033D01*
X48672634Y-15754941D01*
X48632151Y-15630564D01*
X48603243Y-15517990D01*
X48592184Y-15466000D01*
X48583578Y-15418798D01*
X48577153Y-15373802D01*
X48572642Y-15328430D01*
X48569776Y-15280102D01*
X48568284Y-15226234D01*
X48568028Y-15194513D01*
X48789223Y-15194513D01*
X48789808Y-15239248D01*
X48791494Y-15278208D01*
X48793148Y-15298583D01*
X48807895Y-15405442D01*
X48830360Y-15511565D01*
X48860877Y-15618037D01*
X48899780Y-15725944D01*
X48947402Y-15836372D01*
X48978346Y-15900400D01*
X49001921Y-15946742D01*
X49023833Y-15988122D01*
X49045458Y-16026904D01*
X49068172Y-16065451D01*
X49093354Y-16106129D01*
X49122378Y-16151301D01*
X49141060Y-16179800D01*
X49201714Y-16269021D01*
X49264619Y-16355832D01*
X49330771Y-16441428D01*
X49401166Y-16527005D01*
X49476801Y-16613758D01*
X49558673Y-16702883D01*
X49647778Y-16795575D01*
X49689912Y-16838177D01*
X49802450Y-16948579D01*
X49916115Y-17054991D01*
X50032503Y-17158791D01*
X50153205Y-17261356D01*
X50279818Y-17364063D01*
X50413933Y-17468289D01*
X50457922Y-17501604D01*
X50505379Y-17537038D01*
X50554727Y-17573330D01*
X50605274Y-17610007D01*
X50656325Y-17646599D01*
X50707189Y-17682633D01*
X50757172Y-17717638D01*
X50805582Y-17751143D01*
X50851727Y-17782675D01*
X50894912Y-17811763D01*
X50934446Y-17837937D01*
X50969636Y-17860723D01*
X50999788Y-17879650D01*
X51024211Y-17894247D01*
X51042211Y-17904042D01*
X51053095Y-17908564D01*
X51055815Y-17908622D01*
X51061318Y-17905091D01*
X51074249Y-17896636D01*
X51093565Y-17883943D01*
X51118223Y-17867700D01*
X51147181Y-17848592D01*
X51179396Y-17827306D01*
X51201320Y-17812806D01*
X51364973Y-17702716D01*
X51519596Y-17594920D01*
X51665906Y-17488848D01*
X51804621Y-17383931D01*
X51936459Y-17279597D01*
X52062137Y-17175277D01*
X52182373Y-17070400D01*
X52297885Y-16964396D01*
X52409390Y-16856696D01*
X52428353Y-16837822D01*
X52505348Y-16759666D01*
X52575376Y-16685974D01*
X52639721Y-16615281D01*
X52699670Y-16546123D01*
X52756506Y-16477034D01*
X52811513Y-16406550D01*
X52840638Y-16367760D01*
X52933651Y-16235888D01*
X53016581Y-16104811D01*
X53089465Y-15974440D01*
X53152342Y-15844684D01*
X53205250Y-15715453D01*
X53248225Y-15586656D01*
X53281307Y-15458203D01*
X53304533Y-15330004D01*
X53315098Y-15238676D01*
X53317380Y-15202822D01*
X53318588Y-15161019D01*
X53318782Y-15115611D01*
X53318019Y-15068945D01*
X53316357Y-15023367D01*
X53313856Y-14981221D01*
X53310573Y-14944854D01*
X53307175Y-14920030D01*
X53284901Y-14817606D01*
X53254109Y-14720678D01*
X53214870Y-14629352D01*
X53167254Y-14543730D01*
X53111334Y-14463916D01*
X53047177Y-14390014D01*
X52974857Y-14322127D01*
X52894442Y-14260359D01*
X52829911Y-14218739D01*
X52754045Y-14178231D01*
X52670993Y-14142838D01*
X52582687Y-14113190D01*
X52491060Y-14089918D01*
X52398042Y-14073654D01*
X52378064Y-14071135D01*
X52343748Y-14068388D01*
X52302075Y-14067067D01*
X52255735Y-14067086D01*
X52207418Y-14068359D01*
X52159814Y-14070802D01*
X52115615Y-14074331D01*
X52077509Y-14078858D01*
X52063731Y-14081080D01*
X51958812Y-14104856D01*
X51857733Y-14137981D01*
X51760669Y-14180331D01*
X51667795Y-14231780D01*
X51579285Y-14292201D01*
X51495315Y-14361470D01*
X51416057Y-14439460D01*
X51341689Y-14526047D01*
X51272383Y-14621103D01*
X51237201Y-14675787D01*
X51216456Y-14709750D01*
X51199784Y-14737933D01*
X51185943Y-14762794D01*
X51173692Y-14786788D01*
X51161789Y-14812372D01*
X51148993Y-14842003D01*
X51134061Y-14878137D01*
X51130473Y-14886940D01*
X51095329Y-14973300D01*
X50999603Y-14976190D01*
X50967701Y-14883305D01*
X50951637Y-14837498D01*
X50937205Y-14798971D01*
X50923247Y-14765234D01*
X50908602Y-14733798D01*
X50892111Y-14702174D01*
X50872616Y-14667872D01*
X50849026Y-14628521D01*
X50823905Y-14588032D01*
X50802013Y-14554655D01*
X50781888Y-14526488D01*
X50762066Y-14501631D01*
X50741088Y-14478182D01*
X50717490Y-14454240D01*
X50707797Y-14444870D01*
X50629226Y-14375691D01*
X50543181Y-14310908D01*
X50451356Y-14251478D01*
X50355443Y-14198357D01*
X50257135Y-14152501D01*
X50158126Y-14114866D01*
X50083611Y-14092392D01*
X49984684Y-14070017D01*
X49889516Y-14056768D01*
X49797248Y-14052724D01*
X49707023Y-14057961D01*
X49617980Y-14072557D01*
X49529262Y-14096588D01*
X49440010Y-14130133D01*
X49385220Y-14155161D01*
X49297086Y-14202857D01*
X49215970Y-14257068D01*
X49140245Y-14318970D01*
X49085132Y-14372055D01*
X49020441Y-14445165D01*
X48963962Y-14523058D01*
X48915484Y-14606182D01*
X48874798Y-14694982D01*
X48841694Y-14789904D01*
X48815961Y-14891394D01*
X48800658Y-14976837D01*
X48796662Y-15010750D01*
X48793459Y-15052121D01*
X48791111Y-15098303D01*
X48789678Y-15146649D01*
X48789223Y-15194513D01*
X48568028Y-15194513D01*
X48567902Y-15179040D01*
X48568586Y-15107881D01*
X48571095Y-15044309D01*
X48575700Y-14985870D01*
X48582673Y-14930111D01*
X48592285Y-14874578D01*
X48604807Y-14816817D01*
X48610587Y-14792960D01*
X48643195Y-14682036D01*
X48684495Y-14576206D01*
X48734222Y-14475784D01*
X48792115Y-14381084D01*
X48857907Y-14292420D01*
X48931335Y-14210107D01*
X49012136Y-14134458D01*
X49100045Y-14065787D01*
X49194798Y-14004410D01*
X49296132Y-13950640D01*
X49332004Y-13934162D01*
X49421088Y-13898069D01*
X49507047Y-13870238D01*
X49591964Y-13850212D01*
X49677923Y-13837532D01*
X49767009Y-13831737D01*
X49799240Y-13831251D01*
X49889488Y-13833953D01*
G37*
X49889488Y-13833953D02*
X49977599Y-13842878D01*
X50065553Y-13858399D01*
X50155328Y-13880892D01*
X50248904Y-13910731D01*
X50281840Y-13922580D01*
X50310784Y-13934105D01*
X50346103Y-13949468D01*
X50385338Y-13967484D01*
X50426031Y-13986969D01*
X50465725Y-14006741D01*
X50501961Y-14025614D01*
X50532282Y-14042405D01*
X50539866Y-14046864D01*
X50615750Y-14094707D01*
X50687739Y-14144861D01*
X50755160Y-14196674D01*
X50817346Y-14249491D01*
X50873625Y-14302661D01*
X50923327Y-14355532D01*
X50965783Y-14407449D01*
X51000323Y-14457761D01*
X51026276Y-14505814D01*
X51036547Y-14530766D01*
X51047376Y-14560673D01*
X51063973Y-14531666D01*
X51093094Y-14484986D01*
X51129064Y-14434283D01*
X51170421Y-14381378D01*
X51215704Y-14328092D01*
X51263449Y-14276246D01*
X51293461Y-14245807D01*
X51383996Y-14163046D01*
X51478198Y-14089729D01*
X51576003Y-14025880D01*
X51677347Y-13971528D01*
X51782167Y-13926699D01*
X51890399Y-13891419D01*
X52001980Y-13865715D01*
X52116846Y-13849613D01*
X52234934Y-13843140D01*
X52255419Y-13843000D01*
X52370890Y-13847655D01*
X52483653Y-13861417D01*
X52593242Y-13883982D01*
X52699195Y-13915045D01*
X52801048Y-13954303D01*
X52898337Y-14001450D01*
X52990598Y-14056182D01*
X53077367Y-14118196D01*
X53158181Y-14187187D01*
X53232574Y-14262849D01*
X53300085Y-14344880D01*
X53360248Y-14432975D01*
X53412601Y-14526828D01*
X53456678Y-14626137D01*
X53459296Y-14632905D01*
X53479844Y-14690323D01*
X53496926Y-14747000D01*
X53511291Y-14805896D01*
X53523690Y-14869974D01*
X53531291Y-14917420D01*
X53535025Y-14950344D01*
X53537800Y-14991222D01*
X53539616Y-15037892D01*
X53540473Y-15088192D01*
X53540370Y-15139962D01*
X53539307Y-15191039D01*
X53537284Y-15239262D01*
X53534301Y-15282470D01*
X53531330Y-15311120D01*
X53509367Y-15450071D01*
X53478544Y-15586483D01*
X53440935Y-15713532D01*
X53389648Y-15852618D01*
X53328299Y-15991689D01*
X53256879Y-16130751D01*
X53175383Y-16269814D01*
X53083804Y-16408884D01*
X52982134Y-16547971D01*
X52870366Y-16687080D01*
X52748494Y-16826222D01*
X52616511Y-16965402D01*
X52474410Y-17104631D01*
X52322184Y-17243914D01*
X52159825Y-17383261D01*
X51987328Y-17522679D01*
X51804684Y-17662176D01*
X51617880Y-17797529D01*
X51581389Y-17823124D01*
X51541336Y-17850870D01*
X51498519Y-17880241D01*
X51453732Y-17910713D01*
X51407773Y-17941758D01*
X51361438Y-17972852D01*
X51315523Y-18003469D01*
X51270825Y-18033083D01*
X51228139Y-18061167D01*
X51188262Y-18087197D01*
X51151991Y-18110646D01*
X51120122Y-18130989D01*
X51093450Y-18147699D01*
X51072773Y-18160252D01*
X51058887Y-18168121D01*
X51052588Y-18170780D01*
X51052582Y-18170780D01*
X51045673Y-18168090D01*
X51032549Y-18161236D01*
X51015582Y-18151484D01*
X51008280Y-18147075D01*
X50852275Y-18048919D01*
X50695929Y-17945378D01*
X50540274Y-17837269D01*
X50386340Y-17725405D01*
X50235159Y-17610602D01*
X50087762Y-17493676D01*
X49945180Y-17375442D01*
X49808445Y-17256716D01*
X49678588Y-17138311D01*
X49556640Y-17021045D01*
X49460645Y-16923574D01*
X49334392Y-16787646D01*
X49218014Y-16653569D01*
X49111426Y-16521202D01*
X49014541Y-16390401D01*
X48927273Y-16261026D01*
X48849534Y-16132934D01*
X48781239Y-16005984D01*
X48722302Y-15880033D01*
X48672634Y-15754941D01*
X48632151Y-15630564D01*
X48603243Y-15517990D01*
X48592184Y-15466000D01*
X48583578Y-15418798D01*
X48577153Y-15373802D01*
X48572642Y-15328430D01*
X48569776Y-15280102D01*
X48568284Y-15226234D01*
X48568028Y-15194513D01*
X48789223Y-15194513D01*
X48789808Y-15239248D01*
X48791494Y-15278208D01*
X48793148Y-15298583D01*
X48807895Y-15405442D01*
X48830360Y-15511565D01*
X48860877Y-15618037D01*
X48899780Y-15725944D01*
X48947402Y-15836372D01*
X48978346Y-15900400D01*
X49001921Y-15946742D01*
X49023833Y-15988122D01*
X49045458Y-16026904D01*
X49068172Y-16065451D01*
X49093354Y-16106129D01*
X49122378Y-16151301D01*
X49141060Y-16179800D01*
X49201714Y-16269021D01*
X49264619Y-16355832D01*
X49330771Y-16441428D01*
X49401166Y-16527005D01*
X49476801Y-16613758D01*
X49558673Y-16702883D01*
X49647778Y-16795575D01*
X49689912Y-16838177D01*
X49802450Y-16948579D01*
X49916115Y-17054991D01*
X50032503Y-17158791D01*
X50153205Y-17261356D01*
X50279818Y-17364063D01*
X50413933Y-17468289D01*
X50457922Y-17501604D01*
X50505379Y-17537038D01*
X50554727Y-17573330D01*
X50605274Y-17610007D01*
X50656325Y-17646599D01*
X50707189Y-17682633D01*
X50757172Y-17717638D01*
X50805582Y-17751143D01*
X50851727Y-17782675D01*
X50894912Y-17811763D01*
X50934446Y-17837937D01*
X50969636Y-17860723D01*
X50999788Y-17879650D01*
X51024211Y-17894247D01*
X51042211Y-17904042D01*
X51053095Y-17908564D01*
X51055815Y-17908622D01*
X51061318Y-17905091D01*
X51074249Y-17896636D01*
X51093565Y-17883943D01*
X51118223Y-17867700D01*
X51147181Y-17848592D01*
X51179396Y-17827306D01*
X51201320Y-17812806D01*
X51364973Y-17702716D01*
X51519596Y-17594920D01*
X51665906Y-17488848D01*
X51804621Y-17383931D01*
X51936459Y-17279597D01*
X52062137Y-17175277D01*
X52182373Y-17070400D01*
X52297885Y-16964396D01*
X52409390Y-16856696D01*
X52428353Y-16837822D01*
X52505348Y-16759666D01*
X52575376Y-16685974D01*
X52639721Y-16615281D01*
X52699670Y-16546123D01*
X52756506Y-16477034D01*
X52811513Y-16406550D01*
X52840638Y-16367760D01*
X52933651Y-16235888D01*
X53016581Y-16104811D01*
X53089465Y-15974440D01*
X53152342Y-15844684D01*
X53205250Y-15715453D01*
X53248225Y-15586656D01*
X53281307Y-15458203D01*
X53304533Y-15330004D01*
X53315098Y-15238676D01*
X53317380Y-15202822D01*
X53318588Y-15161019D01*
X53318782Y-15115611D01*
X53318019Y-15068945D01*
X53316357Y-15023367D01*
X53313856Y-14981221D01*
X53310573Y-14944854D01*
X53307175Y-14920030D01*
X53284901Y-14817606D01*
X53254109Y-14720678D01*
X53214870Y-14629352D01*
X53167254Y-14543730D01*
X53111334Y-14463916D01*
X53047177Y-14390014D01*
X52974857Y-14322127D01*
X52894442Y-14260359D01*
X52829911Y-14218739D01*
X52754045Y-14178231D01*
X52670993Y-14142838D01*
X52582687Y-14113190D01*
X52491060Y-14089918D01*
X52398042Y-14073654D01*
X52378064Y-14071135D01*
X52343748Y-14068388D01*
X52302075Y-14067067D01*
X52255735Y-14067086D01*
X52207418Y-14068359D01*
X52159814Y-14070802D01*
X52115615Y-14074331D01*
X52077509Y-14078858D01*
X52063731Y-14081080D01*
X51958812Y-14104856D01*
X51857733Y-14137981D01*
X51760669Y-14180331D01*
X51667795Y-14231780D01*
X51579285Y-14292201D01*
X51495315Y-14361470D01*
X51416057Y-14439460D01*
X51341689Y-14526047D01*
X51272383Y-14621103D01*
X51237201Y-14675787D01*
X51216456Y-14709750D01*
X51199784Y-14737933D01*
X51185943Y-14762794D01*
X51173692Y-14786788D01*
X51161789Y-14812372D01*
X51148993Y-14842003D01*
X51134061Y-14878137D01*
X51130473Y-14886940D01*
X51095329Y-14973300D01*
X50999603Y-14976190D01*
X50967701Y-14883305D01*
X50951637Y-14837498D01*
X50937205Y-14798971D01*
X50923247Y-14765234D01*
X50908602Y-14733798D01*
X50892111Y-14702174D01*
X50872616Y-14667872D01*
X50849026Y-14628521D01*
X50823905Y-14588032D01*
X50802013Y-14554655D01*
X50781888Y-14526488D01*
X50762066Y-14501631D01*
X50741088Y-14478182D01*
X50717490Y-14454240D01*
X50707797Y-14444870D01*
X50629226Y-14375691D01*
X50543181Y-14310908D01*
X50451356Y-14251478D01*
X50355443Y-14198357D01*
X50257135Y-14152501D01*
X50158126Y-14114866D01*
X50083611Y-14092392D01*
X49984684Y-14070017D01*
X49889516Y-14056768D01*
X49797248Y-14052724D01*
X49707023Y-14057961D01*
X49617980Y-14072557D01*
X49529262Y-14096588D01*
X49440010Y-14130133D01*
X49385220Y-14155161D01*
X49297086Y-14202857D01*
X49215970Y-14257068D01*
X49140245Y-14318970D01*
X49085132Y-14372055D01*
X49020441Y-14445165D01*
X48963962Y-14523058D01*
X48915484Y-14606182D01*
X48874798Y-14694982D01*
X48841694Y-14789904D01*
X48815961Y-14891394D01*
X48800658Y-14976837D01*
X48796662Y-15010750D01*
X48793459Y-15052121D01*
X48791111Y-15098303D01*
X48789678Y-15146649D01*
X48789223Y-15194513D01*
X48568028Y-15194513D01*
X48567902Y-15179040D01*
X48568586Y-15107881D01*
X48571095Y-15044309D01*
X48575700Y-14985870D01*
X48582673Y-14930111D01*
X48592285Y-14874578D01*
X48604807Y-14816817D01*
X48610587Y-14792960D01*
X48643195Y-14682036D01*
X48684495Y-14576206D01*
X48734222Y-14475784D01*
X48792115Y-14381084D01*
X48857907Y-14292420D01*
X48931335Y-14210107D01*
X49012136Y-14134458D01*
X49100045Y-14065787D01*
X49194798Y-14004410D01*
X49296132Y-13950640D01*
X49332004Y-13934162D01*
X49421088Y-13898069D01*
X49507047Y-13870238D01*
X49591964Y-13850212D01*
X49677923Y-13837532D01*
X49767009Y-13831737D01*
X49799240Y-13831251D01*
X49889488Y-13833953D01*
G36*
X52384220Y-14378665D02*
G01*
X52459636Y-14397084D01*
X52533737Y-14425313D01*
X52606093Y-14463234D01*
X52636420Y-14482395D01*
X52706985Y-14535353D01*
X52771240Y-14595803D01*
X52828809Y-14662991D01*
X52879316Y-14736163D01*
X52922386Y-14814565D01*
X52957643Y-14897444D01*
X52984712Y-14984044D01*
X53003217Y-15073613D01*
X53012782Y-15165395D01*
X53013743Y-15240000D01*
X53012319Y-15277533D01*
X53010130Y-15306637D01*
X53006763Y-15329036D01*
X53001802Y-15346457D01*
X52994832Y-15360623D01*
X52985438Y-15373259D01*
X52980320Y-15378895D01*
X52955084Y-15398473D01*
X52925538Y-15409891D01*
X52893983Y-15412700D01*
X52862721Y-15406456D01*
X52854816Y-15403245D01*
X52833261Y-15389480D01*
X52814110Y-15370182D01*
X52800487Y-15348749D01*
X52797413Y-15340765D01*
X52795456Y-15329985D01*
X52793414Y-15311204D01*
X52791468Y-15286577D01*
X52789796Y-15258260D01*
X52788985Y-15240000D01*
X52785612Y-15175730D01*
X52780602Y-15119833D01*
X52773596Y-15070603D01*
X52764239Y-15026335D01*
X52752174Y-14985323D01*
X52737046Y-14945861D01*
X52719769Y-14908769D01*
X52683135Y-14844395D01*
X52641205Y-14786135D01*
X52594708Y-14734486D01*
X52544373Y-14689944D01*
X52490930Y-14653007D01*
X52435108Y-14624170D01*
X52377635Y-14603931D01*
X52319240Y-14592787D01*
X52260653Y-14591235D01*
X52254427Y-14591656D01*
X52229470Y-14594667D01*
X52203659Y-14599525D01*
X52182312Y-14605219D01*
X52181108Y-14605627D01*
X52146684Y-14613110D01*
X52114913Y-14611576D01*
X52086909Y-14601783D01*
X52063785Y-14584486D01*
X52046654Y-14560443D01*
X52036631Y-14530411D01*
X52034440Y-14505945D01*
X52037803Y-14473650D01*
X52048179Y-14446265D01*
X52066000Y-14423498D01*
X52091696Y-14405053D01*
X52125696Y-14390639D01*
X52168433Y-14379960D01*
X52220335Y-14372724D01*
X52231147Y-14371724D01*
X52307914Y-14370173D01*
X52384220Y-14378665D01*
G37*
X52384220Y-14378665D02*
X52459636Y-14397084D01*
X52533737Y-14425313D01*
X52606093Y-14463234D01*
X52636420Y-14482395D01*
X52706985Y-14535353D01*
X52771240Y-14595803D01*
X52828809Y-14662991D01*
X52879316Y-14736163D01*
X52922386Y-14814565D01*
X52957643Y-14897444D01*
X52984712Y-14984044D01*
X53003217Y-15073613D01*
X53012782Y-15165395D01*
X53013743Y-15240000D01*
X53012319Y-15277533D01*
X53010130Y-15306637D01*
X53006763Y-15329036D01*
X53001802Y-15346457D01*
X52994832Y-15360623D01*
X52985438Y-15373259D01*
X52980320Y-15378895D01*
X52955084Y-15398473D01*
X52925538Y-15409891D01*
X52893983Y-15412700D01*
X52862721Y-15406456D01*
X52854816Y-15403245D01*
X52833261Y-15389480D01*
X52814110Y-15370182D01*
X52800487Y-15348749D01*
X52797413Y-15340765D01*
X52795456Y-15329985D01*
X52793414Y-15311204D01*
X52791468Y-15286577D01*
X52789796Y-15258260D01*
X52788985Y-15240000D01*
X52785612Y-15175730D01*
X52780602Y-15119833D01*
X52773596Y-15070603D01*
X52764239Y-15026335D01*
X52752174Y-14985323D01*
X52737046Y-14945861D01*
X52719769Y-14908769D01*
X52683135Y-14844395D01*
X52641205Y-14786135D01*
X52594708Y-14734486D01*
X52544373Y-14689944D01*
X52490930Y-14653007D01*
X52435108Y-14624170D01*
X52377635Y-14603931D01*
X52319240Y-14592787D01*
X52260653Y-14591235D01*
X52254427Y-14591656D01*
X52229470Y-14594667D01*
X52203659Y-14599525D01*
X52182312Y-14605219D01*
X52181108Y-14605627D01*
X52146684Y-14613110D01*
X52114913Y-14611576D01*
X52086909Y-14601783D01*
X52063785Y-14584486D01*
X52046654Y-14560443D01*
X52036631Y-14530411D01*
X52034440Y-14505945D01*
X52037803Y-14473650D01*
X52048179Y-14446265D01*
X52066000Y-14423498D01*
X52091696Y-14405053D01*
X52125696Y-14390639D01*
X52168433Y-14379960D01*
X52220335Y-14372724D01*
X52231147Y-14371724D01*
X52307914Y-14370173D01*
X52384220Y-14378665D01*
%TD*%
%TO.C,J1*%
G36*
G01*
X40298000Y-7966000D02*
X40298000Y-6766000D01*
G75*
G02*
X40548000Y-6516000I250000J0D01*
G01*
X41748000Y-6516000D01*
G75*
G02*
X41998000Y-6766000I0J-250000D01*
G01*
X41998000Y-7966000D01*
G75*
G02*
X41748000Y-8216000I-250000J0D01*
G01*
X40548000Y-8216000D01*
G75*
G02*
X40298000Y-7966000I0J250000D01*
G01*
G37*
D11*
X41148000Y-9906000D03*
X41148000Y-12446000D03*
X43688000Y-7366000D03*
X43688000Y-9906000D03*
X43688000Y-12446000D03*
%TD*%
D12*
%TO.C,J2*%
X4494000Y-8606000D03*
X4494000Y-9256000D03*
X4494000Y-9906000D03*
X4494000Y-10556000D03*
X4494000Y-11206000D03*
D13*
X4194000Y-7406000D03*
X4194000Y-12406000D03*
D14*
X1494000Y-8906000D03*
X1494000Y-10906000D03*
D15*
X1494000Y-7006000D03*
X1494000Y-12806000D03*
D16*
X1494000Y-6406000D03*
X1494000Y-13406000D03*
%TD*%
D17*
%TO.C,Y1*%
X13554000Y-17818000D03*
X13554000Y-16218000D03*
X12354000Y-16218000D03*
X12354000Y-17818000D03*
D18*
X13554000Y-16218000D03*
X12354000Y-17818000D03*
%TD*%
D19*
%TO.C,REF\u002A\u002A*%
X51000000Y-10000000D03*
%TD*%
%TO.C,C1*%
G36*
G01*
X14282000Y-1049000D02*
X14282000Y-1999000D01*
G75*
G02*
X14032000Y-2249000I-250000J0D01*
G01*
X13532000Y-2249000D01*
G75*
G02*
X13282000Y-1999000I0J250000D01*
G01*
X13282000Y-1049000D01*
G75*
G02*
X13532000Y-799000I250000J0D01*
G01*
X14032000Y-799000D01*
G75*
G02*
X14282000Y-1049000I0J-250000D01*
G01*
G37*
G36*
G01*
X16182000Y-1049000D02*
X16182000Y-1999000D01*
G75*
G02*
X15932000Y-2249000I-250000J0D01*
G01*
X15432000Y-2249000D01*
G75*
G02*
X15182000Y-1999000I0J250000D01*
G01*
X15182000Y-1049000D01*
G75*
G02*
X15432000Y-799000I250000J0D01*
G01*
X15932000Y-799000D01*
G75*
G02*
X16182000Y-1049000I0J-250000D01*
G01*
G37*
%TD*%
%TO.C,C2*%
G36*
G01*
X9619000Y-13896000D02*
X8669000Y-13896000D01*
G75*
G02*
X8419000Y-13646000I0J250000D01*
G01*
X8419000Y-13146000D01*
G75*
G02*
X8669000Y-12896000I250000J0D01*
G01*
X9619000Y-12896000D01*
G75*
G02*
X9869000Y-13146000I0J-250000D01*
G01*
X9869000Y-13646000D01*
G75*
G02*
X9619000Y-13896000I-250000J0D01*
G01*
G37*
G36*
G01*
X9619000Y-11996000D02*
X8669000Y-11996000D01*
G75*
G02*
X8419000Y-11746000I0J250000D01*
G01*
X8419000Y-11246000D01*
G75*
G02*
X8669000Y-10996000I250000J0D01*
G01*
X9619000Y-10996000D01*
G75*
G02*
X9869000Y-11246000I0J-250000D01*
G01*
X9869000Y-11746000D01*
G75*
G02*
X9619000Y-11996000I-250000J0D01*
G01*
G37*
%TD*%
%TO.C,C3*%
G36*
G01*
X31717000Y-5646000D02*
X30767000Y-5646000D01*
G75*
G02*
X30517000Y-5396000I0J250000D01*
G01*
X30517000Y-4896000D01*
G75*
G02*
X30767000Y-4646000I250000J0D01*
G01*
X31717000Y-4646000D01*
G75*
G02*
X31967000Y-4896000I0J-250000D01*
G01*
X31967000Y-5396000D01*
G75*
G02*
X31717000Y-5646000I-250000J0D01*
G01*
G37*
G36*
G01*
X31717000Y-7546000D02*
X30767000Y-7546000D01*
G75*
G02*
X30517000Y-7296000I0J250000D01*
G01*
X30517000Y-6796000D01*
G75*
G02*
X30767000Y-6546000I250000J0D01*
G01*
X31717000Y-6546000D01*
G75*
G02*
X31967000Y-6796000I0J-250000D01*
G01*
X31967000Y-7296000D01*
G75*
G02*
X31717000Y-7546000I-250000J0D01*
G01*
G37*
%TD*%
%TO.C,C4*%
G36*
G01*
X9070000Y-17559000D02*
X9070000Y-18509000D01*
G75*
G02*
X8820000Y-18759000I-250000J0D01*
G01*
X8320000Y-18759000D01*
G75*
G02*
X8070000Y-18509000I0J250000D01*
G01*
X8070000Y-17559000D01*
G75*
G02*
X8320000Y-17309000I250000J0D01*
G01*
X8820000Y-17309000D01*
G75*
G02*
X9070000Y-17559000I0J-250000D01*
G01*
G37*
G36*
G01*
X7170000Y-17559000D02*
X7170000Y-18509000D01*
G75*
G02*
X6920000Y-18759000I-250000J0D01*
G01*
X6420000Y-18759000D01*
G75*
G02*
X6170000Y-18509000I0J250000D01*
G01*
X6170000Y-17559000D01*
G75*
G02*
X6420000Y-17309000I250000J0D01*
G01*
X6920000Y-17309000D01*
G75*
G02*
X7170000Y-17559000I0J-250000D01*
G01*
G37*
%TD*%
%TO.C,C5*%
G36*
G01*
X9070000Y-15527000D02*
X9070000Y-16477000D01*
G75*
G02*
X8820000Y-16727000I-250000J0D01*
G01*
X8320000Y-16727000D01*
G75*
G02*
X8070000Y-16477000I0J250000D01*
G01*
X8070000Y-15527000D01*
G75*
G02*
X8320000Y-15277000I250000J0D01*
G01*
X8820000Y-15277000D01*
G75*
G02*
X9070000Y-15527000I0J-250000D01*
G01*
G37*
G36*
G01*
X7170000Y-15527000D02*
X7170000Y-16477000D01*
G75*
G02*
X6920000Y-16727000I-250000J0D01*
G01*
X6420000Y-16727000D01*
G75*
G02*
X6170000Y-16477000I0J250000D01*
G01*
X6170000Y-15527000D01*
G75*
G02*
X6420000Y-15277000I250000J0D01*
G01*
X6920000Y-15277000D01*
G75*
G02*
X7170000Y-15527000I0J-250000D01*
G01*
G37*
%TD*%
%TO.C,C6*%
G36*
G01*
X3335000Y-17722000D02*
X4285000Y-17722000D01*
G75*
G02*
X4535000Y-17972000I0J-250000D01*
G01*
X4535000Y-18472000D01*
G75*
G02*
X4285000Y-18722000I-250000J0D01*
G01*
X3335000Y-18722000D01*
G75*
G02*
X3085000Y-18472000I0J250000D01*
G01*
X3085000Y-17972000D01*
G75*
G02*
X3335000Y-17722000I250000J0D01*
G01*
G37*
G36*
G01*
X3335000Y-15822000D02*
X4285000Y-15822000D01*
G75*
G02*
X4535000Y-16072000I0J-250000D01*
G01*
X4535000Y-16572000D01*
G75*
G02*
X4285000Y-16822000I-250000J0D01*
G01*
X3335000Y-16822000D01*
G75*
G02*
X3085000Y-16572000I0J250000D01*
G01*
X3085000Y-16072000D01*
G75*
G02*
X3335000Y-15822000I250000J0D01*
G01*
G37*
%TD*%
%TO.C,C7*%
G36*
G01*
X5098000Y-844999D02*
X5098000Y-1695001D01*
G75*
G02*
X4848001Y-1945000I-249999J0D01*
G01*
X3947999Y-1945000D01*
G75*
G02*
X3698000Y-1695001I0J249999D01*
G01*
X3698000Y-844999D01*
G75*
G02*
X3947999Y-595000I249999J0D01*
G01*
X4848001Y-595000D01*
G75*
G02*
X5098000Y-844999I0J-249999D01*
G01*
G37*
G36*
G01*
X2398000Y-844999D02*
X2398000Y-1695001D01*
G75*
G02*
X2148001Y-1945000I-249999J0D01*
G01*
X1247999Y-1945000D01*
G75*
G02*
X998000Y-1695001I0J249999D01*
G01*
X998000Y-844999D01*
G75*
G02*
X1247999Y-595000I249999J0D01*
G01*
X2148001Y-595000D01*
G75*
G02*
X2398000Y-844999I0J-249999D01*
G01*
G37*
%TD*%
%TO.C,C8*%
G36*
G01*
X10594000Y-7145000D02*
X10594000Y-8095000D01*
G75*
G02*
X10344000Y-8345000I-250000J0D01*
G01*
X9844000Y-8345000D01*
G75*
G02*
X9594000Y-8095000I0J250000D01*
G01*
X9594000Y-7145000D01*
G75*
G02*
X9844000Y-6895000I250000J0D01*
G01*
X10344000Y-6895000D01*
G75*
G02*
X10594000Y-7145000I0J-250000D01*
G01*
G37*
G36*
G01*
X8694000Y-7145000D02*
X8694000Y-8095000D01*
G75*
G02*
X8444000Y-8345000I-250000J0D01*
G01*
X7944000Y-8345000D01*
G75*
G02*
X7694000Y-8095000I0J250000D01*
G01*
X7694000Y-7145000D01*
G75*
G02*
X7944000Y-6895000I250000J0D01*
G01*
X8444000Y-6895000D01*
G75*
G02*
X8694000Y-7145000I0J-250000D01*
G01*
G37*
%TD*%
D20*
%TO.C,D1*%
X36364000Y-9156000D03*
X36364000Y-10656000D03*
X35264000Y-10656000D03*
X35264000Y-9156000D03*
%TD*%
D21*
%TO.C,D2*%
X10304000Y-5522000D03*
X10304000Y-4572000D03*
X10304000Y-3622000D03*
X7984000Y-3622000D03*
X7984000Y-4572000D03*
X7984000Y-5522000D03*
%TD*%
%TO.C,F1*%
G36*
G01*
X823000Y-5089000D02*
X823000Y-3039000D01*
G75*
G02*
X1073000Y-2789000I250000J0D01*
G01*
X2173000Y-2789000D01*
G75*
G02*
X2423000Y-3039000I0J-250000D01*
G01*
X2423000Y-5089000D01*
G75*
G02*
X2173000Y-5339000I-250000J0D01*
G01*
X1073000Y-5339000D01*
G75*
G02*
X823000Y-5089000I0J250000D01*
G01*
G37*
G36*
G01*
X3673000Y-5089000D02*
X3673000Y-3039000D01*
G75*
G02*
X3923000Y-2789000I250000J0D01*
G01*
X5023000Y-2789000D01*
G75*
G02*
X5273000Y-3039000I0J-250000D01*
G01*
X5273000Y-5089000D01*
G75*
G02*
X5023000Y-5339000I-250000J0D01*
G01*
X3923000Y-5339000D01*
G75*
G02*
X3673000Y-5089000I0J250000D01*
G01*
G37*
%TD*%
%TO.C,R1*%
G36*
G01*
X34135000Y-7562001D02*
X34135000Y-6661999D01*
G75*
G02*
X34384999Y-6412000I249999J0D01*
G01*
X34910001Y-6412000D01*
G75*
G02*
X35160000Y-6661999I0J-249999D01*
G01*
X35160000Y-7562001D01*
G75*
G02*
X34910001Y-7812000I-249999J0D01*
G01*
X34384999Y-7812000D01*
G75*
G02*
X34135000Y-7562001I0J249999D01*
G01*
G37*
G36*
G01*
X35960000Y-7562001D02*
X35960000Y-6661999D01*
G75*
G02*
X36209999Y-6412000I249999J0D01*
G01*
X36735001Y-6412000D01*
G75*
G02*
X36985000Y-6661999I0J-249999D01*
G01*
X36985000Y-7562001D01*
G75*
G02*
X36735001Y-7812000I-249999J0D01*
G01*
X36209999Y-7812000D01*
G75*
G02*
X35960000Y-7562001I0J249999D01*
G01*
G37*
%TD*%
%TO.C,R2*%
G36*
G01*
X10864001Y-16618000D02*
X9963999Y-16618000D01*
G75*
G02*
X9714000Y-16368001I0J249999D01*
G01*
X9714000Y-15842999D01*
G75*
G02*
X9963999Y-15593000I249999J0D01*
G01*
X10864001Y-15593000D01*
G75*
G02*
X11114000Y-15842999I0J-249999D01*
G01*
X11114000Y-16368001D01*
G75*
G02*
X10864001Y-16618000I-249999J0D01*
G01*
G37*
G36*
G01*
X10864001Y-18443000D02*
X9963999Y-18443000D01*
G75*
G02*
X9714000Y-18193001I0J249999D01*
G01*
X9714000Y-17667999D01*
G75*
G02*
X9963999Y-17418000I249999J0D01*
G01*
X10864001Y-17418000D01*
G75*
G02*
X11114000Y-17667999I0J-249999D01*
G01*
X11114000Y-18193001D01*
G75*
G02*
X10864001Y-18443000I-249999J0D01*
G01*
G37*
%TD*%
%TO.C,R3*%
G36*
G01*
X30579000Y-18484001D02*
X30579000Y-17583999D01*
G75*
G02*
X30828999Y-17334000I249999J0D01*
G01*
X31354001Y-17334000D01*
G75*
G02*
X31604000Y-17583999I0J-249999D01*
G01*
X31604000Y-18484001D01*
G75*
G02*
X31354001Y-18734000I-249999J0D01*
G01*
X30828999Y-18734000D01*
G75*
G02*
X30579000Y-18484001I0J249999D01*
G01*
G37*
G36*
G01*
X32404000Y-18484001D02*
X32404000Y-17583999D01*
G75*
G02*
X32653999Y-17334000I249999J0D01*
G01*
X33179001Y-17334000D01*
G75*
G02*
X33429000Y-17583999I0J-249999D01*
G01*
X33429000Y-18484001D01*
G75*
G02*
X33179001Y-18734000I-249999J0D01*
G01*
X32653999Y-18734000D01*
G75*
G02*
X32404000Y-18484001I0J249999D01*
G01*
G37*
%TD*%
%TO.C,R4*%
G36*
G01*
X32404000Y-16198001D02*
X32404000Y-15297999D01*
G75*
G02*
X32653999Y-15048000I249999J0D01*
G01*
X33179001Y-15048000D01*
G75*
G02*
X33429000Y-15297999I0J-249999D01*
G01*
X33429000Y-16198001D01*
G75*
G02*
X33179001Y-16448000I-249999J0D01*
G01*
X32653999Y-16448000D01*
G75*
G02*
X32404000Y-16198001I0J249999D01*
G01*
G37*
G36*
G01*
X30579000Y-16198001D02*
X30579000Y-15297999D01*
G75*
G02*
X30828999Y-15048000I249999J0D01*
G01*
X31354001Y-15048000D01*
G75*
G02*
X31604000Y-15297999I0J-249999D01*
G01*
X31604000Y-16198001D01*
G75*
G02*
X31354001Y-16448000I-249999J0D01*
G01*
X30828999Y-16448000D01*
G75*
G02*
X30579000Y-16198001I0J249999D01*
G01*
G37*
%TD*%
%TO.C,R5*%
G36*
G01*
X30579000Y-13912001D02*
X30579000Y-13011999D01*
G75*
G02*
X30828999Y-12762000I249999J0D01*
G01*
X31354001Y-12762000D01*
G75*
G02*
X31604000Y-13011999I0J-249999D01*
G01*
X31604000Y-13912001D01*
G75*
G02*
X31354001Y-14162000I-249999J0D01*
G01*
X30828999Y-14162000D01*
G75*
G02*
X30579000Y-13912001I0J249999D01*
G01*
G37*
G36*
G01*
X32404000Y-13912001D02*
X32404000Y-13011999D01*
G75*
G02*
X32653999Y-12762000I249999J0D01*
G01*
X33179001Y-12762000D01*
G75*
G02*
X33429000Y-13011999I0J-249999D01*
G01*
X33429000Y-13912001D01*
G75*
G02*
X33179001Y-14162000I-249999J0D01*
G01*
X32653999Y-14162000D01*
G75*
G02*
X32404000Y-13912001I0J249999D01*
G01*
G37*
%TD*%
%TO.C,R6*%
G36*
G01*
X1073999Y-17672000D02*
X1974001Y-17672000D01*
G75*
G02*
X2224000Y-17921999I0J-249999D01*
G01*
X2224000Y-18447001D01*
G75*
G02*
X1974001Y-18697000I-249999J0D01*
G01*
X1073999Y-18697000D01*
G75*
G02*
X824000Y-18447001I0J249999D01*
G01*
X824000Y-17921999D01*
G75*
G02*
X1073999Y-17672000I249999J0D01*
G01*
G37*
G36*
G01*
X1073999Y-15847000D02*
X1974001Y-15847000D01*
G75*
G02*
X2224000Y-16096999I0J-249999D01*
G01*
X2224000Y-16622001D01*
G75*
G02*
X1974001Y-16872000I-249999J0D01*
G01*
X1073999Y-16872000D01*
G75*
G02*
X824000Y-16622001I0J249999D01*
G01*
X824000Y-16096999D01*
G75*
G02*
X1073999Y-15847000I249999J0D01*
G01*
G37*
%TD*%
%TO.C,R7*%
G36*
G01*
X30579000Y-11626001D02*
X30579000Y-10725999D01*
G75*
G02*
X30828999Y-10476000I249999J0D01*
G01*
X31354001Y-10476000D01*
G75*
G02*
X31604000Y-10725999I0J-249999D01*
G01*
X31604000Y-11626001D01*
G75*
G02*
X31354001Y-11876000I-249999J0D01*
G01*
X30828999Y-11876000D01*
G75*
G02*
X30579000Y-11626001I0J249999D01*
G01*
G37*
G36*
G01*
X32404000Y-11626001D02*
X32404000Y-10725999D01*
G75*
G02*
X32653999Y-10476000I249999J0D01*
G01*
X33179001Y-10476000D01*
G75*
G02*
X33429000Y-10725999I0J-249999D01*
G01*
X33429000Y-11626001D01*
G75*
G02*
X33179001Y-11876000I-249999J0D01*
G01*
X32653999Y-11876000D01*
G75*
G02*
X32404000Y-11626001I0J249999D01*
G01*
G37*
%TD*%
D22*
%TO.C,U1*%
G36*
X18647134Y-2711188D02*
G01*
X19036042Y-2322280D01*
X20096702Y-3382940D01*
X19707794Y-3771848D01*
X18647134Y-2711188D01*
G37*
G36*
X18081449Y-3276874D02*
G01*
X18470357Y-2887966D01*
X19531017Y-3948626D01*
X19142109Y-4337534D01*
X18081449Y-3276874D01*
G37*
G36*
X17515764Y-3842559D02*
G01*
X17904672Y-3453651D01*
X18965332Y-4514311D01*
X18576424Y-4903219D01*
X17515764Y-3842559D01*
G37*
G36*
X16950078Y-4408244D02*
G01*
X17338986Y-4019336D01*
X18399646Y-5079996D01*
X18010738Y-5468904D01*
X16950078Y-4408244D01*
G37*
G36*
X16384393Y-4973930D02*
G01*
X16773301Y-4585022D01*
X17833961Y-5645682D01*
X17445053Y-6034590D01*
X16384393Y-4973930D01*
G37*
G36*
X15818707Y-5539615D02*
G01*
X16207615Y-5150707D01*
X17268275Y-6211367D01*
X16879367Y-6600275D01*
X15818707Y-5539615D01*
G37*
G36*
X15253022Y-6105301D02*
G01*
X15641930Y-5716393D01*
X16702590Y-6777053D01*
X16313682Y-7165961D01*
X15253022Y-6105301D01*
G37*
G36*
X14687336Y-6670986D02*
G01*
X15076244Y-6282078D01*
X16136904Y-7342738D01*
X15747996Y-7731646D01*
X14687336Y-6670986D01*
G37*
G36*
X14121651Y-7236672D02*
G01*
X14510559Y-6847764D01*
X15571219Y-7908424D01*
X15182311Y-8297332D01*
X14121651Y-7236672D01*
G37*
G36*
X13555966Y-7802357D02*
G01*
X13944874Y-7413449D01*
X15005534Y-8474109D01*
X14616626Y-8863017D01*
X13555966Y-7802357D01*
G37*
G36*
X12990280Y-8368042D02*
G01*
X13379188Y-7979134D01*
X14439848Y-9039794D01*
X14050940Y-9428702D01*
X12990280Y-8368042D01*
G37*
G36*
X13379188Y-11832866D02*
G01*
X12990280Y-11443958D01*
X14050940Y-10383298D01*
X14439848Y-10772206D01*
X13379188Y-11832866D01*
G37*
G36*
X13944874Y-12398551D02*
G01*
X13555966Y-12009643D01*
X14616626Y-10948983D01*
X15005534Y-11337891D01*
X13944874Y-12398551D01*
G37*
G36*
X14510559Y-12964236D02*
G01*
X14121651Y-12575328D01*
X15182311Y-11514668D01*
X15571219Y-11903576D01*
X14510559Y-12964236D01*
G37*
G36*
X15076244Y-13529922D02*
G01*
X14687336Y-13141014D01*
X15747996Y-12080354D01*
X16136904Y-12469262D01*
X15076244Y-13529922D01*
G37*
G36*
X15641930Y-14095607D02*
G01*
X15253022Y-13706699D01*
X16313682Y-12646039D01*
X16702590Y-13034947D01*
X15641930Y-14095607D01*
G37*
G36*
X16207615Y-14661293D02*
G01*
X15818707Y-14272385D01*
X16879367Y-13211725D01*
X17268275Y-13600633D01*
X16207615Y-14661293D01*
G37*
G36*
X16773301Y-15226978D02*
G01*
X16384393Y-14838070D01*
X17445053Y-13777410D01*
X17833961Y-14166318D01*
X16773301Y-15226978D01*
G37*
G36*
X17338986Y-15792664D02*
G01*
X16950078Y-15403756D01*
X18010738Y-14343096D01*
X18399646Y-14732004D01*
X17338986Y-15792664D01*
G37*
G36*
X17904672Y-16358349D02*
G01*
X17515764Y-15969441D01*
X18576424Y-14908781D01*
X18965332Y-15297689D01*
X17904672Y-16358349D01*
G37*
G36*
X18470357Y-16924034D02*
G01*
X18081449Y-16535126D01*
X19142109Y-15474466D01*
X19531017Y-15863374D01*
X18470357Y-16924034D01*
G37*
G36*
X19036042Y-17489720D02*
G01*
X18647134Y-17100812D01*
X19707794Y-16040152D01*
X20096702Y-16429060D01*
X19036042Y-17489720D01*
G37*
G36*
X21051298Y-16429060D02*
G01*
X21440206Y-16040152D01*
X22500866Y-17100812D01*
X22111958Y-17489720D01*
X21051298Y-16429060D01*
G37*
G36*
X21616983Y-15863374D02*
G01*
X22005891Y-15474466D01*
X23066551Y-16535126D01*
X22677643Y-16924034D01*
X21616983Y-15863374D01*
G37*
G36*
X22182668Y-15297689D02*
G01*
X22571576Y-14908781D01*
X23632236Y-15969441D01*
X23243328Y-16358349D01*
X22182668Y-15297689D01*
G37*
G36*
X22748354Y-14732004D02*
G01*
X23137262Y-14343096D01*
X24197922Y-15403756D01*
X23809014Y-15792664D01*
X22748354Y-14732004D01*
G37*
G36*
X23314039Y-14166318D02*
G01*
X23702947Y-13777410D01*
X24763607Y-14838070D01*
X24374699Y-15226978D01*
X23314039Y-14166318D01*
G37*
G36*
X23879725Y-13600633D02*
G01*
X24268633Y-13211725D01*
X25329293Y-14272385D01*
X24940385Y-14661293D01*
X23879725Y-13600633D01*
G37*
G36*
X24445410Y-13034947D02*
G01*
X24834318Y-12646039D01*
X25894978Y-13706699D01*
X25506070Y-14095607D01*
X24445410Y-13034947D01*
G37*
G36*
X25011096Y-12469262D02*
G01*
X25400004Y-12080354D01*
X26460664Y-13141014D01*
X26071756Y-13529922D01*
X25011096Y-12469262D01*
G37*
G36*
X25576781Y-11903576D02*
G01*
X25965689Y-11514668D01*
X27026349Y-12575328D01*
X26637441Y-12964236D01*
X25576781Y-11903576D01*
G37*
G36*
X26142466Y-11337891D02*
G01*
X26531374Y-10948983D01*
X27592034Y-12009643D01*
X27203126Y-12398551D01*
X26142466Y-11337891D01*
G37*
G36*
X26708152Y-10772206D02*
G01*
X27097060Y-10383298D01*
X28157720Y-11443958D01*
X27768812Y-11832866D01*
X26708152Y-10772206D01*
G37*
G36*
X27097060Y-9428702D02*
G01*
X26708152Y-9039794D01*
X27768812Y-7979134D01*
X28157720Y-8368042D01*
X27097060Y-9428702D01*
G37*
G36*
X26531374Y-8863017D02*
G01*
X26142466Y-8474109D01*
X27203126Y-7413449D01*
X27592034Y-7802357D01*
X26531374Y-8863017D01*
G37*
G36*
X25965689Y-8297332D02*
G01*
X25576781Y-7908424D01*
X26637441Y-6847764D01*
X27026349Y-7236672D01*
X25965689Y-8297332D01*
G37*
G36*
X25400004Y-7731646D02*
G01*
X25011096Y-7342738D01*
X26071756Y-6282078D01*
X26460664Y-6670986D01*
X25400004Y-7731646D01*
G37*
G36*
X24834318Y-7165961D02*
G01*
X24445410Y-6777053D01*
X25506070Y-5716393D01*
X25894978Y-6105301D01*
X24834318Y-7165961D01*
G37*
G36*
X24268633Y-6600275D02*
G01*
X23879725Y-6211367D01*
X24940385Y-5150707D01*
X25329293Y-5539615D01*
X24268633Y-6600275D01*
G37*
G36*
X23702947Y-6034590D02*
G01*
X23314039Y-5645682D01*
X24374699Y-4585022D01*
X24763607Y-4973930D01*
X23702947Y-6034590D01*
G37*
G36*
X23137262Y-5468904D02*
G01*
X22748354Y-5079996D01*
X23809014Y-4019336D01*
X24197922Y-4408244D01*
X23137262Y-5468904D01*
G37*
G36*
X22571576Y-4903219D02*
G01*
X22182668Y-4514311D01*
X23243328Y-3453651D01*
X23632236Y-3842559D01*
X22571576Y-4903219D01*
G37*
G36*
X22005891Y-4337534D02*
G01*
X21616983Y-3948626D01*
X22677643Y-2887966D01*
X23066551Y-3276874D01*
X22005891Y-4337534D01*
G37*
G36*
X21440206Y-3771848D02*
G01*
X21051298Y-3382940D01*
X22111958Y-2322280D01*
X22500866Y-2711188D01*
X21440206Y-3771848D01*
G37*
%TD*%
M02*
