%TF.GenerationSoftware,KiCad,Pcbnew,5.1.12-84ad8e8a86~92~ubuntu18.04.1*%
%TF.CreationDate,2023-04-24T19:04:36+02:00*%
%TF.ProjectId,digital-protection-amulet,64696769-7461-46c2-9d70-726f74656374,rev?*%
%TF.SameCoordinates,Original*%
%TF.FileFunction,Legend,Top*%
%TF.FilePolarity,Positive*%
%FSLAX46Y46*%
G04 Gerber Fmt 4.6, Leading zero omitted, Abs format (unit mm)*
G04 Created by KiCad (PCBNEW 5.1.12-84ad8e8a86~92~ubuntu18.04.1) date 2023-04-24 19:04:36*
%MOMM*%
%LPD*%
G01*
G04 APERTURE LIST*
%ADD10C,0.120000*%
%ADD11C,0.150000*%
%ADD12C,0.152400*%
G04 APERTURE END LIST*
D10*
X37592000Y-8382000D02*
G75*
G03*
X37592000Y-8382000I-254000J0D01*
G01*
X11430000Y-6350000D02*
G75*
G03*
X11430000Y-6350000I-254000J0D01*
G01*
X20066000Y-1778000D02*
G75*
G03*
X20066000Y-1778000I-254000J0D01*
G01*
%TO.C,J1*%
X40648000Y-4972000D02*
X41148000Y-5972000D01*
X41648000Y-4972000D02*
X40648000Y-4972000D01*
X41148000Y-5972000D02*
X41648000Y-4972000D01*
X39168000Y-11956000D02*
X37858000Y-11956000D01*
X39168000Y-11956000D02*
X39168000Y-11956000D01*
X39168000Y-16356000D02*
X39168000Y-11956000D01*
X45668000Y-16356000D02*
X39168000Y-16356000D01*
X45668000Y-3456000D02*
X45668000Y-16356000D01*
X39168000Y-3456000D02*
X45668000Y-3456000D01*
X39168000Y-7856000D02*
X39168000Y-3456000D01*
X37858000Y-7856000D02*
X39168000Y-7856000D01*
X37858000Y-17656000D02*
X37858000Y-2156000D01*
X46978000Y-17656000D02*
X37858000Y-17656000D01*
X46978000Y-2156000D02*
X46978000Y-17656000D01*
X37858000Y-2156000D02*
X46978000Y-2156000D01*
%TO.C,J2*%
X2474000Y-13666000D02*
X4454000Y-13666000D01*
X4454000Y-13666000D02*
X4454000Y-13246000D01*
X504000Y-13666000D02*
X104000Y-13666000D01*
X104000Y-6146000D02*
X504000Y-6146000D01*
X2474000Y-6146000D02*
X4454000Y-6146000D01*
X4454000Y-6146000D02*
X4454000Y-6566000D01*
X5134000Y-8596000D02*
X5134000Y-8146000D01*
X4684000Y-8146000D02*
X5134000Y-8146000D01*
%TO.C,Y1*%
X14254000Y-18618000D02*
X14254000Y-15418000D01*
X11654000Y-18618000D02*
X14254000Y-18618000D01*
%TO.C,C1*%
X14993252Y-2259000D02*
X14470748Y-2259000D01*
X14993252Y-789000D02*
X14470748Y-789000D01*
%TO.C,C2*%
X9879000Y-12707252D02*
X9879000Y-12184748D01*
X8409000Y-12707252D02*
X8409000Y-12184748D01*
%TO.C,C3*%
X30507000Y-6357252D02*
X30507000Y-5834748D01*
X31977000Y-6357252D02*
X31977000Y-5834748D01*
%TO.C,C4*%
X7881252Y-17299000D02*
X7358748Y-17299000D01*
X7881252Y-18769000D02*
X7358748Y-18769000D01*
%TO.C,C5*%
X7881252Y-15267000D02*
X7358748Y-15267000D01*
X7881252Y-16737000D02*
X7358748Y-16737000D01*
%TO.C,C6*%
X4545000Y-17010748D02*
X4545000Y-17533252D01*
X3075000Y-17010748D02*
X3075000Y-17533252D01*
%TO.C,C7*%
X5358000Y-335000D02*
X1448000Y-335000D01*
X5358000Y-2205000D02*
X5358000Y-335000D01*
X1448000Y-2205000D02*
X5358000Y-2205000D01*
%TO.C,C8*%
X9405252Y-6885000D02*
X8882748Y-6885000D01*
X9405252Y-8355000D02*
X8882748Y-8355000D01*
%TO.C,D1*%
X34664000Y-8456000D02*
X34664000Y-11356000D01*
X36964000Y-8456000D02*
X36964000Y-11356000D01*
X36364000Y-8456000D02*
X36964000Y-8456000D01*
%TO.C,D2*%
X8344000Y-6172000D02*
X10644000Y-6172000D01*
X9944000Y-2972000D02*
X8344000Y-2972000D01*
%TO.C,F1*%
X2557545Y-5424000D02*
X3538455Y-5424000D01*
X2557545Y-2704000D02*
X3538455Y-2704000D01*
%TO.C,R1*%
X35332936Y-7847000D02*
X35787064Y-7847000D01*
X35332936Y-6377000D02*
X35787064Y-6377000D01*
%TO.C,R2*%
X9679000Y-17245064D02*
X9679000Y-16790936D01*
X11149000Y-17245064D02*
X11149000Y-16790936D01*
%TO.C,R3*%
X31776936Y-18769000D02*
X32231064Y-18769000D01*
X31776936Y-17299000D02*
X32231064Y-17299000D01*
%TO.C,R4*%
X31776936Y-15013000D02*
X32231064Y-15013000D01*
X31776936Y-16483000D02*
X32231064Y-16483000D01*
%TO.C,R5*%
X31776936Y-14197000D02*
X32231064Y-14197000D01*
X31776936Y-12727000D02*
X32231064Y-12727000D01*
%TO.C,R6*%
X2259000Y-17044936D02*
X2259000Y-17499064D01*
X789000Y-17044936D02*
X789000Y-17499064D01*
%TO.C,R7*%
X31776936Y-11911000D02*
X32231064Y-11911000D01*
X31776936Y-10441000D02*
X32231064Y-10441000D01*
D11*
%TO.C,U1*%
X20167414Y-2994031D02*
X19265852Y-2092470D01*
X27892555Y-9906000D02*
X27415258Y-9428703D01*
X20574000Y-17224555D02*
X20096703Y-16747258D01*
X13255445Y-9906000D02*
X13732742Y-10383297D01*
X20574000Y-2587445D02*
X21051297Y-3064742D01*
X13255445Y-9906000D02*
X13732742Y-9428703D01*
X20574000Y-17224555D02*
X21051297Y-16747258D01*
X27892555Y-9906000D02*
X27415258Y-10383297D01*
X20574000Y-2587445D02*
X20167414Y-2994031D01*
%TO.C,J1*%
D12*
X38083066Y-1078895D02*
X38083066Y-1659466D01*
X38044361Y-1775580D01*
X37966952Y-1852990D01*
X37850838Y-1891695D01*
X37773428Y-1891695D01*
X38895866Y-1891695D02*
X38431409Y-1891695D01*
X38663638Y-1891695D02*
X38663638Y-1078895D01*
X38586228Y-1195009D01*
X38508819Y-1272419D01*
X38431409Y-1311123D01*
%TO.C,J2*%
X5650895Y-6620933D02*
X6231466Y-6620933D01*
X6347580Y-6659638D01*
X6424990Y-6737047D01*
X6463695Y-6853161D01*
X6463695Y-6930571D01*
X5728304Y-6272590D02*
X5689600Y-6233885D01*
X5650895Y-6156476D01*
X5650895Y-5962952D01*
X5689600Y-5885542D01*
X5728304Y-5846838D01*
X5805714Y-5808133D01*
X5883123Y-5808133D01*
X5999238Y-5846838D01*
X6463695Y-6311295D01*
X6463695Y-5808133D01*
%TO.C,Y1*%
X14966647Y-18167047D02*
X15353695Y-18167047D01*
X14540895Y-18437980D02*
X14966647Y-18167047D01*
X14540895Y-17896114D01*
X15353695Y-17199428D02*
X15353695Y-17663885D01*
X15353695Y-17431657D02*
X14540895Y-17431657D01*
X14657009Y-17509066D01*
X14734419Y-17586476D01*
X14773123Y-17663885D01*
%TO.C,C1*%
X14596533Y-3494285D02*
X14557828Y-3532990D01*
X14441714Y-3571695D01*
X14364304Y-3571695D01*
X14248190Y-3532990D01*
X14170780Y-3455580D01*
X14132076Y-3378171D01*
X14093371Y-3223352D01*
X14093371Y-3107238D01*
X14132076Y-2952419D01*
X14170780Y-2875009D01*
X14248190Y-2797600D01*
X14364304Y-2758895D01*
X14441714Y-2758895D01*
X14557828Y-2797600D01*
X14596533Y-2836304D01*
X15370628Y-3571695D02*
X14906171Y-3571695D01*
X15138400Y-3571695D02*
X15138400Y-2758895D01*
X15060990Y-2875009D01*
X14983580Y-2952419D01*
X14906171Y-2991123D01*
%TO.C,C2*%
X9434285Y-10041466D02*
X9472990Y-10080171D01*
X9511695Y-10196285D01*
X9511695Y-10273695D01*
X9472990Y-10389809D01*
X9395580Y-10467219D01*
X9318171Y-10505923D01*
X9163352Y-10544628D01*
X9047238Y-10544628D01*
X8892419Y-10505923D01*
X8815009Y-10467219D01*
X8737600Y-10389809D01*
X8698895Y-10273695D01*
X8698895Y-10196285D01*
X8737600Y-10080171D01*
X8776304Y-10041466D01*
X8776304Y-9731828D02*
X8737600Y-9693123D01*
X8698895Y-9615714D01*
X8698895Y-9422190D01*
X8737600Y-9344780D01*
X8776304Y-9306076D01*
X8853714Y-9267371D01*
X8931123Y-9267371D01*
X9047238Y-9306076D01*
X9511695Y-9770533D01*
X9511695Y-9267371D01*
%TO.C,C3*%
X30008285Y-6231466D02*
X30046990Y-6270171D01*
X30085695Y-6386285D01*
X30085695Y-6463695D01*
X30046990Y-6579809D01*
X29969580Y-6657219D01*
X29892171Y-6695923D01*
X29737352Y-6734628D01*
X29621238Y-6734628D01*
X29466419Y-6695923D01*
X29389009Y-6657219D01*
X29311600Y-6579809D01*
X29272895Y-6463695D01*
X29272895Y-6386285D01*
X29311600Y-6270171D01*
X29350304Y-6231466D01*
X29272895Y-5960533D02*
X29272895Y-5457371D01*
X29582533Y-5728304D01*
X29582533Y-5612190D01*
X29621238Y-5534780D01*
X29659942Y-5496076D01*
X29737352Y-5457371D01*
X29930876Y-5457371D01*
X30008285Y-5496076D01*
X30046990Y-5534780D01*
X30085695Y-5612190D01*
X30085695Y-5844419D01*
X30046990Y-5921828D01*
X30008285Y-5960533D01*
%TO.C,C4*%
X6468533Y-14768285D02*
X6429828Y-14806990D01*
X6313714Y-14845695D01*
X6236304Y-14845695D01*
X6120190Y-14806990D01*
X6042780Y-14729580D01*
X6004076Y-14652171D01*
X5965371Y-14497352D01*
X5965371Y-14381238D01*
X6004076Y-14226419D01*
X6042780Y-14149009D01*
X6120190Y-14071600D01*
X6236304Y-14032895D01*
X6313714Y-14032895D01*
X6429828Y-14071600D01*
X6468533Y-14110304D01*
X7165219Y-14303828D02*
X7165219Y-14845695D01*
X6971695Y-13994190D02*
X6778171Y-14574761D01*
X7281333Y-14574761D01*
%TO.C,C5*%
X6468533Y-13752285D02*
X6429828Y-13790990D01*
X6313714Y-13829695D01*
X6236304Y-13829695D01*
X6120190Y-13790990D01*
X6042780Y-13713580D01*
X6004076Y-13636171D01*
X5965371Y-13481352D01*
X5965371Y-13365238D01*
X6004076Y-13210419D01*
X6042780Y-13133009D01*
X6120190Y-13055600D01*
X6236304Y-13016895D01*
X6313714Y-13016895D01*
X6429828Y-13055600D01*
X6468533Y-13094304D01*
X7203923Y-13016895D02*
X6816876Y-13016895D01*
X6778171Y-13403942D01*
X6816876Y-13365238D01*
X6894285Y-13326533D01*
X7087809Y-13326533D01*
X7165219Y-13365238D01*
X7203923Y-13403942D01*
X7242628Y-13481352D01*
X7242628Y-13674876D01*
X7203923Y-13752285D01*
X7165219Y-13790990D01*
X7087809Y-13829695D01*
X6894285Y-13829695D01*
X6816876Y-13790990D01*
X6778171Y-13752285D01*
%TO.C,C6*%
X4100285Y-14867466D02*
X4138990Y-14906171D01*
X4177695Y-15022285D01*
X4177695Y-15099695D01*
X4138990Y-15215809D01*
X4061580Y-15293219D01*
X3984171Y-15331923D01*
X3829352Y-15370628D01*
X3713238Y-15370628D01*
X3558419Y-15331923D01*
X3481009Y-15293219D01*
X3403600Y-15215809D01*
X3364895Y-15099695D01*
X3364895Y-15022285D01*
X3403600Y-14906171D01*
X3442304Y-14867466D01*
X3364895Y-14170780D02*
X3364895Y-14325600D01*
X3403600Y-14403009D01*
X3442304Y-14441714D01*
X3558419Y-14519123D01*
X3713238Y-14557828D01*
X4022876Y-14557828D01*
X4100285Y-14519123D01*
X4138990Y-14480419D01*
X4177695Y-14403009D01*
X4177695Y-14248190D01*
X4138990Y-14170780D01*
X4100285Y-14132076D01*
X4022876Y-14093371D01*
X3829352Y-14093371D01*
X3751942Y-14132076D01*
X3713238Y-14170780D01*
X3674533Y-14248190D01*
X3674533Y-14403009D01*
X3713238Y-14480419D01*
X3751942Y-14519123D01*
X3829352Y-14557828D01*
%TO.C,C7*%
X6214533Y-1560285D02*
X6175828Y-1598990D01*
X6059714Y-1637695D01*
X5982304Y-1637695D01*
X5866190Y-1598990D01*
X5788780Y-1521580D01*
X5750076Y-1444171D01*
X5711371Y-1289352D01*
X5711371Y-1173238D01*
X5750076Y-1018419D01*
X5788780Y-941009D01*
X5866190Y-863600D01*
X5982304Y-824895D01*
X6059714Y-824895D01*
X6175828Y-863600D01*
X6214533Y-902304D01*
X6485466Y-824895D02*
X7027333Y-824895D01*
X6678990Y-1637695D01*
%TO.C,C8*%
X11548533Y-7910285D02*
X11509828Y-7948990D01*
X11393714Y-7987695D01*
X11316304Y-7987695D01*
X11200190Y-7948990D01*
X11122780Y-7871580D01*
X11084076Y-7794171D01*
X11045371Y-7639352D01*
X11045371Y-7523238D01*
X11084076Y-7368419D01*
X11122780Y-7291009D01*
X11200190Y-7213600D01*
X11316304Y-7174895D01*
X11393714Y-7174895D01*
X11509828Y-7213600D01*
X11548533Y-7252304D01*
X12012990Y-7523238D02*
X11935580Y-7484533D01*
X11896876Y-7445828D01*
X11858171Y-7368419D01*
X11858171Y-7329714D01*
X11896876Y-7252304D01*
X11935580Y-7213600D01*
X12012990Y-7174895D01*
X12167809Y-7174895D01*
X12245219Y-7213600D01*
X12283923Y-7252304D01*
X12322628Y-7329714D01*
X12322628Y-7368419D01*
X12283923Y-7445828D01*
X12245219Y-7484533D01*
X12167809Y-7523238D01*
X12012990Y-7523238D01*
X11935580Y-7561942D01*
X11896876Y-7600647D01*
X11858171Y-7678057D01*
X11858171Y-7832876D01*
X11896876Y-7910285D01*
X11935580Y-7948990D01*
X12012990Y-7987695D01*
X12167809Y-7987695D01*
X12245219Y-7948990D01*
X12283923Y-7910285D01*
X12322628Y-7832876D01*
X12322628Y-7678057D01*
X12283923Y-7600647D01*
X12245219Y-7561942D01*
X12167809Y-7523238D01*
%TO.C,D1*%
X35976076Y-12559695D02*
X35976076Y-11746895D01*
X36169600Y-11746895D01*
X36285714Y-11785600D01*
X36363123Y-11863009D01*
X36401828Y-11940419D01*
X36440533Y-12095238D01*
X36440533Y-12211352D01*
X36401828Y-12366171D01*
X36363123Y-12443580D01*
X36285714Y-12520990D01*
X36169600Y-12559695D01*
X35976076Y-12559695D01*
X37214628Y-12559695D02*
X36750171Y-12559695D01*
X36982400Y-12559695D02*
X36982400Y-11746895D01*
X36904990Y-11863009D01*
X36827580Y-11940419D01*
X36750171Y-11979123D01*
%TO.C,D2*%
X11084076Y-5701695D02*
X11084076Y-4888895D01*
X11277600Y-4888895D01*
X11393714Y-4927600D01*
X11471123Y-5005009D01*
X11509828Y-5082419D01*
X11548533Y-5237238D01*
X11548533Y-5353352D01*
X11509828Y-5508171D01*
X11471123Y-5585580D01*
X11393714Y-5662990D01*
X11277600Y-5701695D01*
X11084076Y-5701695D01*
X11858171Y-4966304D02*
X11896876Y-4927600D01*
X11974285Y-4888895D01*
X12167809Y-4888895D01*
X12245219Y-4927600D01*
X12283923Y-4966304D01*
X12322628Y-5043714D01*
X12322628Y-5121123D01*
X12283923Y-5237238D01*
X11819466Y-5701695D01*
X12322628Y-5701695D01*
%TO.C,F1*%
X6079066Y-4005942D02*
X5808133Y-4005942D01*
X5808133Y-4431695D02*
X5808133Y-3618895D01*
X6195180Y-3618895D01*
X6930571Y-4431695D02*
X6466114Y-4431695D01*
X6698342Y-4431695D02*
X6698342Y-3618895D01*
X6620933Y-3735009D01*
X6543523Y-3812419D01*
X6466114Y-3851123D01*
%TO.C,R1*%
X32884533Y-7479695D02*
X32613600Y-7092647D01*
X32420076Y-7479695D02*
X32420076Y-6666895D01*
X32729714Y-6666895D01*
X32807123Y-6705600D01*
X32845828Y-6744304D01*
X32884533Y-6821714D01*
X32884533Y-6937828D01*
X32845828Y-7015238D01*
X32807123Y-7053942D01*
X32729714Y-7092647D01*
X32420076Y-7092647D01*
X33658628Y-7479695D02*
X33194171Y-7479695D01*
X33426400Y-7479695D02*
X33426400Y-6666895D01*
X33348990Y-6783009D01*
X33271580Y-6860419D01*
X33194171Y-6899123D01*
%TO.C,R2*%
X10781695Y-14613466D02*
X10394647Y-14884400D01*
X10781695Y-15077923D02*
X9968895Y-15077923D01*
X9968895Y-14768285D01*
X10007600Y-14690876D01*
X10046304Y-14652171D01*
X10123714Y-14613466D01*
X10239828Y-14613466D01*
X10317238Y-14652171D01*
X10355942Y-14690876D01*
X10394647Y-14768285D01*
X10394647Y-15077923D01*
X10046304Y-14303828D02*
X10007600Y-14265123D01*
X9968895Y-14187714D01*
X9968895Y-13994190D01*
X10007600Y-13916780D01*
X10046304Y-13878076D01*
X10123714Y-13839371D01*
X10201123Y-13839371D01*
X10317238Y-13878076D01*
X10781695Y-14342533D01*
X10781695Y-13839371D01*
%TO.C,R3*%
X29328533Y-18401695D02*
X29057600Y-18014647D01*
X28864076Y-18401695D02*
X28864076Y-17588895D01*
X29173714Y-17588895D01*
X29251123Y-17627600D01*
X29289828Y-17666304D01*
X29328533Y-17743714D01*
X29328533Y-17859828D01*
X29289828Y-17937238D01*
X29251123Y-17975942D01*
X29173714Y-18014647D01*
X28864076Y-18014647D01*
X29599466Y-17588895D02*
X30102628Y-17588895D01*
X29831695Y-17898533D01*
X29947809Y-17898533D01*
X30025219Y-17937238D01*
X30063923Y-17975942D01*
X30102628Y-18053352D01*
X30102628Y-18246876D01*
X30063923Y-18324285D01*
X30025219Y-18362990D01*
X29947809Y-18401695D01*
X29715580Y-18401695D01*
X29638171Y-18362990D01*
X29599466Y-18324285D01*
%TO.C,R4*%
X29328533Y-16115695D02*
X29057600Y-15728647D01*
X28864076Y-16115695D02*
X28864076Y-15302895D01*
X29173714Y-15302895D01*
X29251123Y-15341600D01*
X29289828Y-15380304D01*
X29328533Y-15457714D01*
X29328533Y-15573828D01*
X29289828Y-15651238D01*
X29251123Y-15689942D01*
X29173714Y-15728647D01*
X28864076Y-15728647D01*
X30025219Y-15573828D02*
X30025219Y-16115695D01*
X29831695Y-15264190D02*
X29638171Y-15844761D01*
X30141333Y-15844761D01*
%TO.C,R5*%
X29328533Y-13829695D02*
X29057600Y-13442647D01*
X28864076Y-13829695D02*
X28864076Y-13016895D01*
X29173714Y-13016895D01*
X29251123Y-13055600D01*
X29289828Y-13094304D01*
X29328533Y-13171714D01*
X29328533Y-13287828D01*
X29289828Y-13365238D01*
X29251123Y-13403942D01*
X29173714Y-13442647D01*
X28864076Y-13442647D01*
X30063923Y-13016895D02*
X29676876Y-13016895D01*
X29638171Y-13403942D01*
X29676876Y-13365238D01*
X29754285Y-13326533D01*
X29947809Y-13326533D01*
X30025219Y-13365238D01*
X30063923Y-13403942D01*
X30102628Y-13481352D01*
X30102628Y-13674876D01*
X30063923Y-13752285D01*
X30025219Y-13790990D01*
X29947809Y-13829695D01*
X29754285Y-13829695D01*
X29676876Y-13790990D01*
X29638171Y-13752285D01*
%TO.C,R6*%
X1891695Y-14867466D02*
X1504647Y-15138400D01*
X1891695Y-15331923D02*
X1078895Y-15331923D01*
X1078895Y-15022285D01*
X1117600Y-14944876D01*
X1156304Y-14906171D01*
X1233714Y-14867466D01*
X1349828Y-14867466D01*
X1427238Y-14906171D01*
X1465942Y-14944876D01*
X1504647Y-15022285D01*
X1504647Y-15331923D01*
X1078895Y-14170780D02*
X1078895Y-14325600D01*
X1117600Y-14403009D01*
X1156304Y-14441714D01*
X1272419Y-14519123D01*
X1427238Y-14557828D01*
X1736876Y-14557828D01*
X1814285Y-14519123D01*
X1852990Y-14480419D01*
X1891695Y-14403009D01*
X1891695Y-14248190D01*
X1852990Y-14170780D01*
X1814285Y-14132076D01*
X1736876Y-14093371D01*
X1543352Y-14093371D01*
X1465942Y-14132076D01*
X1427238Y-14170780D01*
X1388533Y-14248190D01*
X1388533Y-14403009D01*
X1427238Y-14480419D01*
X1465942Y-14519123D01*
X1543352Y-14557828D01*
%TO.C,R7*%
X29328533Y-11543695D02*
X29057600Y-11156647D01*
X28864076Y-11543695D02*
X28864076Y-10730895D01*
X29173714Y-10730895D01*
X29251123Y-10769600D01*
X29289828Y-10808304D01*
X29328533Y-10885714D01*
X29328533Y-11001828D01*
X29289828Y-11079238D01*
X29251123Y-11117942D01*
X29173714Y-11156647D01*
X28864076Y-11156647D01*
X29599466Y-10730895D02*
X30141333Y-10730895D01*
X29792990Y-11543695D01*
%TO.C,U1*%
X20380723Y-1332895D02*
X20380723Y-1990876D01*
X20419428Y-2068285D01*
X20458133Y-2106990D01*
X20535542Y-2145695D01*
X20690361Y-2145695D01*
X20767771Y-2106990D01*
X20806476Y-2068285D01*
X20845180Y-1990876D01*
X20845180Y-1332895D01*
X21657980Y-2145695D02*
X21193523Y-2145695D01*
X21425752Y-2145695D02*
X21425752Y-1332895D01*
X21348342Y-1449009D01*
X21270933Y-1526419D01*
X21193523Y-1565123D01*
%TD*%
M02*
