<?xml version="1.0" encoding="utf-8"?>
<!-- Svg Vector Icons : http://www.onlinewebfonts.com/icon -->
<!DOCTYPE svg PUBLIC "-//W3C//DTD SVG 1.1//EN" "http://www.w3.org/Graphics/SVG/1.1/DTD/svg11.dtd">
<svg version="1.1" xmlns="http://www.w3.org/2000/svg" xmlns:xlink="http://www.w3.org/1999/xlink" x="0px" y="0px" viewBox="0 0 1000 1000" enable-background="new 0 0 1000 1000" xml:space="preserve">
<metadata> Svg Vector Icons : http://www.onlinewebfonts.com/icon </metadata>
<g><path d="M695.9,77.7C559.2,98.6,498.4,216.8,498.4,216.8c-9-51.1-159.9-177.1-302.4-136.6C107.3,105.4,10,183.7,10,338.3c0,305.2,490,589.3,490,589.3c128.6-83,490-311.5,490-604.6C990,149.1,836.9,56.2,695.9,77.7z M499.3,876c-40.4-25.4-129-84.1-216.3-162.2C178.4,620.4,53.8,479.4,53.8,338.3c0-60.2,16.6-110.5,49.4-149.4c26.4-31.3,63.4-54.9,104.7-66.6c14.3-4,29.5-6.1,45.3-6.1c59,0,111,27.8,136.8,44.4c42.2,27.1,61.7,53.6,64.9,61.4c0,0,14.5,22.9,18.4,31.3c4.7,10.5,15.6,44.4,15.6,44.4h19.3c0,0,11.2-28.7,15.5-37.8c2.8-5.9,13.6-22.8,13.6-22.8c1-1.8,14.7-26.6,41.6-52.8c35.8-34.8,77.3-56,123.7-63.1c11.2-1.8,22.6-2.6,34-2.6c54.3,0,107.3,19.7,145.6,54c41.9,37.6,64.1,89.7,64.1,150.6C946.3,576.8,636.7,787,499.3,876z"/><path d="M708.8,183.3c-0.3,0.1-0.5,0.2-0.9,0.2v0.2c-8.8,2.4-15.3,11-15.3,21.4c0,12.2,9.1,22.2,20.2,22.2c3.3,0,6.3-0.9,9.1-2.4c6.2-1.9,12.7-2.8,19.3-2.8c18.5,0,38,7.5,54.7,21.4c18.4,15.2,32.7,37.2,40.4,61.9c5.9,19.5,5.5,57.8,5.5,57.8c0.4,11.8,10.1,21.2,21.8,21.2c11.9,0,21.5-9.7,21.8-21.8l0,0c2.3-22.4,0.1-46.3-7.1-69.9C853.3,211.3,777.4,162.3,708.8,183.3z"/></g>
</svg>